<svg aria-hidden="true" style="position: absolute; width: 0; height: 0; overflow: hidden;" version="1.1" xmlns="http://www.w3.org/2000/svg" xmlns:xlink="http://www.w3.org/1999/xlink">
<defs>
<symbol id="vk" viewBox="0 0 32 32">
<path fill="#fff" style="fill: var(--color1, #fff)" d="M28.89 22c-1.183-1.863-2.569-3.59-4.13-5.15-0.028-0.035-0.044-0.080-0.044-0.125s0.015-0.090 0.044-0.125c1.344-1.834 2.531-3.777 3.55-5.81 0.147-0.291 0.218-0.615 0.203-0.94s-0.112-0.642-0.284-0.92c-0.157-0.282-0.386-0.516-0.663-0.68s-0.594-0.25-0.916-0.25h-3c-0.381 0.007-0.751 0.123-1.068 0.334s-0.567 0.508-0.722 0.856c-0.871 1.927-1.916 3.771-3.12 5.51v-4.9c0.001-0.237-0.044-0.471-0.134-0.69s-0.223-0.418-0.39-0.585c-0.167-0.167-0.366-0.3-0.585-0.39s-0.454-0.136-0.69-0.134h-4.38c-0.255 0.004-0.504 0.078-0.72 0.213s-0.392 0.327-0.507 0.554-0.166 0.482-0.147 0.736c0.019 0.254 0.107 0.499 0.254 0.707l0.4 0.56c0.215 0.308 0.33 0.675 0.33 1.050v3.84c-1.32-1.953-2.37-4.075-3.12-6.31-0.135-0.394-0.39-0.735-0.729-0.977s-0.745-0.372-1.161-0.373h-2.45c-0.26 0.003-0.517 0.065-0.75 0.181s-0.437 0.283-0.597 0.489c-0.16 0.206-0.271 0.445-0.325 0.699s-0.050 0.518 0.011 0.771c1.35 5.73 4.18 10.48 7.77 13 0.215 0.153 0.482 0.214 0.742 0.171s0.493-0.187 0.648-0.401c0.077-0.107 0.133-0.228 0.163-0.356s0.035-0.261 0.013-0.392c-0.021-0.13-0.068-0.255-0.138-0.367s-0.161-0.209-0.268-0.285c-3.14-2.2-5.64-6.39-6.91-11.51h2.1c0.92 2.796 2.306 5.416 4.1 7.75 0.207 0.265 0.493 0.458 0.816 0.551s0.667 0.082 0.984-0.031c0.325-0.113 0.606-0.326 0.803-0.608s0.301-0.619 0.297-0.962v-4.88c0.002-0.636-0.156-1.262-0.46-1.82h3v5.43c-0.003 0.389 0.121 0.767 0.354 1.078s0.562 0.536 0.936 0.642c0.363 0.121 0.755 0.119 1.117-0.006s0.672-0.365 0.883-0.684c1.42-2.026 2.633-4.191 3.62-6.46h2.8c-0.953 1.874-2.053 3.67-3.29 5.37-0.312 0.417-0.463 0.933-0.427 1.452s0.259 1.009 0.627 1.378c1.459 1.47 2.771 3.077 3.92 4.8h-3.35c-1.033-1.711-2.421-3.18-4.070-4.31-0.247-0.181-0.541-0.29-0.846-0.313s-0.612 0.040-0.884 0.183c-0.279 0.143-0.513 0.361-0.676 0.629s-0.247 0.577-0.244 0.891v2.38c0.006 0.139-0.044 0.274-0.137 0.377s-0.224 0.165-0.363 0.173h-0.86c-0.265 0-0.52 0.105-0.707 0.293s-0.293 0.442-0.293 0.707 0.105 0.52 0.293 0.707c0.188 0.188 0.442 0.293 0.707 0.293h0.86c0.332-0.003 0.66-0.071 0.965-0.2s0.582-0.318 0.814-0.555c0.232-0.237 0.416-0.517 0.539-0.825s0.185-0.637 0.181-0.969v-1.77c1.203 0.905 2.221 2.032 3 3.32 0.172 0.298 0.418 0.547 0.714 0.722s0.632 0.271 0.976 0.278h3.38c0.346 0.001 0.685-0.092 0.983-0.268s0.542-0.429 0.707-0.732c0.17-0.31 0.255-0.659 0.246-1.012s-0.111-0.698-0.296-0.998z"></path>
</symbol>
<symbol id="inst" viewBox="0 0 32 32">
<path fill="#fff" style="fill: var(--color1, #fff)" d="M15.997 2.347c-3.708 0-4.173 0.016-5.629 0.082-1.453 0.066-2.446 0.297-3.314 0.635-0.898 0.349-1.659 0.816-2.418 1.575s-1.226 1.52-1.575 2.418c-0.338 0.868-0.568 1.861-0.635 3.314-0.066 1.456-0.082 1.921-0.082 5.629s0.016 4.173 0.082 5.629c0.066 1.453 0.297 2.446 0.635 3.314 0.349 0.898 0.816 1.659 1.575 2.418s1.52 1.226 2.418 1.575c0.869 0.337 1.861 0.568 3.314 0.635 1.456 0.066 1.921 0.082 5.629 0.082s4.173-0.016 5.629-0.082c1.453-0.066 2.446-0.297 3.314-0.635 0.898-0.349 1.659-0.816 2.418-1.575s1.226-1.52 1.575-2.418c0.337-0.869 0.568-1.861 0.635-3.314 0.066-1.456 0.082-1.921 0.082-5.629s-0.016-4.173-0.082-5.629c-0.066-1.453-0.297-2.446-0.635-3.314-0.349-0.898-0.816-1.659-1.575-2.418s-1.52-1.226-2.418-1.575c-0.869-0.338-1.861-0.568-3.314-0.635-1.456-0.066-1.921-0.082-5.629-0.082zM15.997 4.807c3.646 0 4.077 0.014 5.517 0.080 1.331 0.061 2.054 0.283 2.535 0.47 0.637 0.248 1.092 0.544 1.57 1.021s0.774 0.933 1.021 1.57c0.187 0.481 0.409 1.204 0.47 2.535 0.066 1.44 0.080 1.871 0.080 5.517s-0.014 4.077-0.080 5.517c-0.061 1.331-0.283 2.054-0.47 2.535-0.248 0.637-0.544 1.092-1.021 1.57s-0.933 0.774-1.57 1.021c-0.481 0.187-1.204 0.409-2.535 0.47-1.439 0.066-1.871 0.080-5.517 0.080s-4.078-0.014-5.517-0.080c-1.331-0.061-2.054-0.283-2.535-0.47-0.637-0.248-1.092-0.544-1.57-1.021s-0.774-0.933-1.021-1.57c-0.187-0.481-0.409-1.204-0.47-2.535-0.066-1.44-0.080-1.872-0.080-5.517s0.014-4.077 0.080-5.517c0.061-1.331 0.283-2.054 0.47-2.535 0.248-0.637 0.544-1.092 1.021-1.57s0.933-0.774 1.57-1.021c0.481-0.187 1.204-0.409 2.535-0.47 1.44-0.066 1.872-0.080 5.517-0.080z"></path>
<path fill="#fff" style="fill: var(--color1, #fff)" d="M15.995 20.551c-2.514 0-4.551-2.038-4.551-4.551s2.038-4.551 4.551-4.551c2.514 0 4.551 2.038 4.551 4.551s-2.038 4.551-4.551 4.551zM15.995 8.989c-3.872 0-7.011 3.139-7.011 7.011s3.139 7.011 7.011 7.011c3.872 0 7.011-3.139 7.011-7.011s-3.139-7.011-7.011-7.011z"></path>
<path fill="#fff" style="fill: var(--color1, #fff)" d="M24.925 8.712c0 0.905-0.733 1.638-1.638 1.638s-1.638-0.733-1.638-1.638 0.734-1.638 1.638-1.638c0.905 0 1.638 0.734 1.638 1.638z"></path>
</symbol>
<symbol id="fb" viewBox="0 0 32 32">
<path fill="none" stroke="#fff" style="stroke: var(--color1, #fff)" stroke-linejoin="miter" stroke-linecap="butt" stroke-miterlimit="4" stroke-width="2.1333" d="M22.796 12.506c0.013-0.126-0.086-0.235-0.212-0.235h-4.079v-2.83c0-1.063 0.704-1.311 1.201-1.311 0.408 0 2.211 0 2.833 0 0.118 0 0.212-0.095 0.212-0.213v-4.247c0-0.118-0.095-0.213-0.212-0.213l-3.981-0.016c-4.656 0-5.715 3.485-5.715 5.715v3.115h-2.479c-0.118 0-0.213 0.096-0.213 0.213v4.388c0 0.118 0.095 0.213 0.213 0.213h2.479c0 5.567 0 12.162 0 13.413 0 0.118 0.095 0.211 0.213 0.211h5.236c0.118 0 0.213-0.093 0.213-0.211 0-1.258 0-7.91 0-13.413h3.629c0.109 0 0.201-0.083 0.212-0.192l0.45-4.388z"></path>
</symbol>
</defs>
</svg>
